<svg width="30" height="30" viewBox="0 0 30 30" fill="none" xmlns="http://www.w3.org/2000/svg">
<path fill-rule="evenodd" clip-rule="evenodd" d="M15 27C18.1826 27 21.2348 25.7357 23.4853 23.4853C25.7357 21.2348 27 18.1826 27 15C27 11.8174 25.7357 8.76516 23.4853 6.51472C21.2348 4.26428 18.1826 3 15 3C11.8174 3 8.76516 4.26428 6.51472 6.51472C4.26428 8.76516 3 11.8174 3 15C3 18.1826 4.26428 21.2348 6.51472 23.4853C8.76516 25.7357 11.8174 27 15 27ZM20.5605 13.9395L16.0605 9.4395C15.7776 9.16626 15.3987 9.01507 15.0054 9.01849C14.6121 9.02191 14.2359 9.17966 13.9578 9.45777C13.6797 9.73588 13.5219 10.1121 13.5185 10.5054C13.5151 10.8987 13.6663 11.2776 13.9395 11.5605L15.879 13.5H10.5C10.1022 13.5 9.72064 13.658 9.43934 13.9393C9.15804 14.2206 9 14.6022 9 15C9 15.3978 9.15804 15.7794 9.43934 16.0607C9.72064 16.342 10.1022 16.5 10.5 16.5H15.879L13.9395 18.4395C13.7962 18.5779 13.682 18.7434 13.6033 18.9264C13.5247 19.1094 13.4834 19.3062 13.4816 19.5054C13.4799 19.7046 13.5178 19.9021 13.5933 20.0864C13.6687 20.2708 13.7801 20.4383 13.9209 20.5791C14.0617 20.7199 14.2292 20.8313 14.4136 20.9067C14.5979 20.9822 14.7954 21.0201 14.9946 21.0184C15.1938 21.0166 15.3906 20.9753 15.5736 20.8967C15.7566 20.818 15.9221 20.7038 16.0605 20.5605L20.5605 16.0605C20.8417 15.7792 20.9997 15.3977 20.9997 15C20.9997 14.6023 20.8417 14.2208 20.5605 13.9395Z" fill="#191A19"/>
</svg>
