<svg width="15" height="15" viewBox="0 0 15 15" fill="none" xmlns="http://www.w3.org/2000/svg">
<path fill-rule="evenodd" clip-rule="evenodd" d="M7.71975 2.46983C7.8604 2.32923 8.05113 2.25024 8.25 2.25024C8.44887 2.25024 8.6396 2.32923 8.78025 2.46983L13.2803 6.96983C13.4209 7.11048 13.4998 7.30121 13.4998 7.50008C13.4998 7.69896 13.4209 7.88969 13.2803 8.03033L8.78025 12.5303C8.6388 12.667 8.44935 12.7425 8.2527 12.7408C8.05605 12.7391 7.86794 12.6603 7.72889 12.5212C7.58983 12.3821 7.51095 12.194 7.50924 11.9974C7.50754 11.8007 7.58313 11.6113 7.71975 11.4698L10.9395 8.25008H2.25C2.05109 8.25008 1.86032 8.17107 1.71967 8.03041C1.57902 7.88976 1.5 7.699 1.5 7.50008C1.5 7.30117 1.57902 7.11041 1.71967 6.96975C1.86032 6.8291 2.05109 6.75008 2.25 6.75008H10.9395L7.71975 3.53033C7.57915 3.38969 7.50016 3.19896 7.50016 3.00008C7.50016 2.80121 7.57915 2.61048 7.71975 2.46983Z" fill="white"/>
</svg>
