<svg width="48" height="48" viewBox="0 0 48 48" fill="none" xmlns="http://www.w3.org/2000/svg">
<path fill-rule="evenodd" clip-rule="evenodd" d="M8 14C8 12.8954 8.89543 12 10 12H38C39.1046 12 40 12.8954 40 14C40 15.1046 39.1046 16 38 16H10C8.89543 16 8 15.1046 8 14ZM8 24C8 22.8954 8.89543 22 10 22H38C39.1046 22 40 22.8954 40 24C40 25.1046 39.1046 26 38 26H10C8.89543 26 8 25.1046 8 24ZM8 34C8 32.8954 8.89543 32 10 32H38C39.1046 32 40 32.8954 40 34C40 35.1046 39.1046 36 38 36H10C8.89543 36 8 35.1046 8 34Z" fill="white"/>
</svg>
